<svg width="264" height="80" viewBox="0 0 264 80" fill="none" xmlns="http://www.w3.org/2000/svg">
<rect width="264" height="80" rx="2" fill="#252539"/>
<path d="M68.2898 38.1398C68.3104 36.5441 68.7342 34.9795 69.522 33.5916C70.3097 32.2037 71.4357 31.0377 72.7952 30.2019C71.9315 28.9684 70.7922 27.9533 69.4676 27.2372C68.1431 26.5212 66.6698 26.1238 65.1648 26.0767C61.9544 25.7397 58.8421 27.9979 57.206 27.9979C55.5385 27.9979 53.0196 26.1101 50.3071 26.166C48.5527 26.2227 46.8429 26.7329 45.3443 27.6469C43.8457 28.5609 42.6094 29.8474 41.7558 31.3812C38.0583 37.7828 40.8164 47.1908 44.3582 52.3656C46.1301 54.8994 48.2012 57.7297 50.9111 57.6293C53.5629 57.5194 54.5535 55.9383 57.7542 55.9383C60.9256 55.9383 61.8548 57.6293 64.6197 57.5655C67.4652 57.5194 69.2581 55.0205 70.9679 52.4627C72.2412 50.6572 73.2209 48.6617 73.8709 46.5501C72.2177 45.8509 70.807 44.6806 69.8145 43.185C68.822 41.6894 68.2917 39.9348 68.2898 38.1398ZM63.0674 22.6737C64.619 20.8111 65.3834 18.4171 65.1982 16C62.8279 16.249 60.6384 17.3819 59.066 19.173C58.2971 20.048 57.7083 21.0659 57.3331 22.1686C56.9579 23.2713 56.8037 24.4371 56.8793 25.5994C58.0649 25.6116 59.2379 25.3547 60.3098 24.8478C61.3817 24.341 62.3247 23.5976 63.0676 22.6735L63.0674 22.6737ZM100.105 51.4693H91.4026L89.3128 57.64H85.6266L93.8694 34.8098H97.699L105.942 57.64H102.193L100.105 51.4693ZM92.3038 48.6217H99.2017L95.8013 38.6072H95.7061L92.3038 48.6217ZM123.743 49.3185C123.743 54.4909 120.974 57.8141 116.796 57.8141C115.738 57.8694 114.686 57.6257 113.759 57.1106C112.833 56.5956 112.071 55.8302 111.559 54.902H111.48V63.1464H108.064V40.995H111.371V43.7636H111.434C111.969 42.8398 112.744 42.0783 113.677 41.5601C114.61 41.042 115.667 40.7865 116.734 40.8209C120.958 40.8209 123.743 44.1603 123.743 49.3183V49.3185ZM120.231 49.3185C120.231 45.9486 118.49 43.733 115.832 43.733C113.222 43.733 111.466 45.9951 111.466 49.3183C111.466 52.6723 113.222 54.9183 115.832 54.9183C118.49 54.9183 120.231 52.719 120.231 49.3183V49.3185ZM142.064 49.3185C142.064 54.4909 139.294 57.8141 135.117 57.8141C134.058 57.8694 133.006 57.6257 132.079 57.1106C131.153 56.5956 130.391 55.8302 129.879 54.902H129.8V63.1464H126.384V40.995H129.691V43.7636H129.754C130.289 42.8398 131.064 42.0783 131.997 41.5601C132.93 41.042 133.987 40.7865 135.054 40.8209C139.278 40.8209 142.064 44.1603 142.064 49.3183V49.3185ZM138.551 49.3185C138.551 45.9486 136.81 43.733 134.152 43.733C131.542 43.733 129.786 45.9951 129.786 49.3183C129.786 52.6723 131.542 54.9183 134.152 54.9183C136.81 54.9183 138.551 52.719 138.551 49.3183V49.3185ZM154.17 51.2791C154.423 53.543 156.623 55.0295 159.628 55.0295C162.508 55.0295 164.58 53.543 164.58 51.5015C164.58 49.7294 163.33 48.6684 160.371 47.9413L157.413 47.2285C153.22 46.2159 151.274 44.2553 151.274 41.0739C151.274 37.1347 154.707 34.4292 159.58 34.4292C164.406 34.4292 167.713 37.1347 167.824 41.0739H164.375C164.169 38.7956 162.285 37.4203 159.533 37.4203C156.781 37.4203 154.897 38.8118 154.897 40.8369C154.897 42.4511 156.1 43.4008 159.043 44.1278L161.558 44.7455C166.242 45.8532 168.187 47.7348 168.187 51.0741C168.187 55.3454 164.786 58.0206 159.375 58.0206C154.312 58.0206 150.893 55.4081 150.673 51.2789L154.17 51.2791ZM175.564 37.0561V40.995H178.729V43.7007H175.564V52.8769C175.564 54.3024 176.198 54.9667 177.589 54.9667C177.965 54.9601 178.34 54.9337 178.713 54.8876V57.5773C178.087 57.6941 177.452 57.747 176.815 57.735C173.445 57.735 172.131 56.4694 172.131 53.2413V43.7007H169.711V40.995H172.131V37.0561H175.564ZM180.56 49.3185C180.56 44.0812 183.645 40.7904 188.455 40.7904C193.281 40.7904 196.351 44.0812 196.351 49.3185C196.351 54.5699 193.297 57.8465 188.455 57.8465C183.614 57.8465 180.56 54.5699 180.56 49.3185ZM192.87 49.3185C192.87 45.7259 191.223 43.6054 188.455 43.6054C185.686 43.6054 184.04 45.7419 184.04 49.3185C184.04 52.9254 185.686 55.0295 188.455 55.0295C191.223 55.0295 192.87 52.9254 192.87 49.3185ZM199.168 40.995H202.426V43.8281H202.505C202.726 42.9432 203.244 42.1613 203.973 41.6136C204.703 41.066 205.598 40.7861 206.509 40.8209C206.903 40.8195 207.296 40.8622 207.68 40.9483V44.1441C207.183 43.9922 206.664 43.9225 206.145 43.9377C205.648 43.9175 205.154 44.005 204.694 44.1942C204.235 44.3833 203.822 44.6696 203.484 45.0335C203.145 45.3973 202.89 45.83 202.735 46.3019C202.58 46.7738 202.528 47.2736 202.585 47.7672V57.64H199.168V40.995ZM223.432 52.7511C222.973 55.7728 220.03 57.8465 216.265 57.8465C211.423 57.8465 208.418 54.6023 208.418 49.3974C208.418 44.1765 211.439 40.7904 216.122 40.7904C220.727 40.7904 223.623 43.9538 223.623 49.0006V50.1712H211.867V50.3777C211.812 50.9902 211.889 51.6074 212.092 52.1881C212.294 52.7687 212.618 53.2997 213.041 53.7456C213.465 54.1915 213.978 54.5423 214.548 54.7745C215.117 55.0067 215.73 55.1151 216.344 55.0924C217.152 55.1681 217.962 54.9811 218.655 54.5592C219.347 54.1374 219.885 53.5032 220.188 52.7511H223.432ZM211.883 47.7834H220.204C220.235 47.2326 220.152 46.6814 219.959 46.1644C219.767 45.6474 219.469 45.1757 219.086 44.779C218.703 44.3823 218.242 44.0692 217.731 43.8592C217.221 43.6492 216.673 43.5469 216.122 43.5587C215.565 43.5554 215.014 43.6623 214.499 43.8733C213.984 44.0842 213.516 44.395 213.122 44.7878C212.728 45.1806 212.415 45.6475 212.203 46.1617C211.99 46.6758 211.881 47.227 211.883 47.7834ZM91.8765 17.6254C92.5928 17.574 93.3116 17.6822 93.981 17.9422C94.6505 18.2022 95.2538 18.6076 95.7476 19.1291C96.2414 19.6505 96.6133 20.2751 96.8365 20.9576C97.0597 21.6402 97.1286 22.3638 97.0382 23.0763C97.0382 26.5808 95.144 28.5954 91.8765 28.5954H87.914V17.6252L91.8765 17.6254ZM89.6179 27.0439H91.6862C92.1981 27.0745 92.7103 26.9905 93.1856 26.7982C93.6609 26.6058 94.0873 26.3099 94.4338 25.932C94.7803 25.5541 95.0382 25.1037 95.1887 24.6135C95.3392 24.1234 95.3785 23.6058 95.3038 23.0985C95.3731 22.5933 95.3298 22.0789 95.177 21.5924C95.0242 21.1058 94.7657 20.659 94.42 20.2841C94.0742 19.9092 93.6498 19.6154 93.1772 19.4237C92.7046 19.2321 92.1954 19.1474 91.6862 19.1756H89.6179V27.0439ZM98.9629 24.4524C98.9109 23.9084 98.9731 23.3594 99.1456 22.8409C99.3181 22.3223 99.5971 21.8455 99.9647 21.441C100.332 21.0366 100.78 20.7135 101.28 20.4923C101.78 20.2712 102.32 20.157 102.867 20.157C103.413 20.157 103.954 20.2712 104.454 20.4923C104.954 20.7135 105.402 21.0366 105.769 21.441C106.137 21.8455 106.416 22.3223 106.588 22.8409C106.761 23.3594 106.823 23.9084 106.771 24.4524C106.824 24.9971 106.763 25.5468 106.591 26.0664C106.419 26.5859 106.14 27.0637 105.772 27.4691C105.405 27.8744 104.956 28.1983 104.456 28.42C103.955 28.6417 103.414 28.7562 102.867 28.7562C102.32 28.7562 101.778 28.6417 101.278 28.42C100.778 28.1983 100.329 27.8744 99.9616 27.4691C99.5939 27.0637 99.3151 26.5859 99.1431 26.0664C98.9711 25.5468 98.9097 24.9971 98.9629 24.4524ZM105.091 24.4524C105.091 22.6579 104.284 21.6085 102.87 21.6085C101.449 21.6085 100.651 22.6579 100.651 24.4524C100.651 26.2613 101.45 27.3026 102.87 27.3026C104.284 27.3026 105.091 26.2541 105.091 24.4524ZM117.15 28.5952H115.455L113.744 22.4981H113.615L111.911 28.5952H110.233L107.951 20.3166H109.608L111.091 26.6336H111.213L112.915 20.3166H114.482L116.184 26.6336H116.314L117.789 20.3166H119.423L117.15 28.5952ZM121.342 20.3167H122.915V21.6318H123.037C123.244 21.1594 123.594 20.7634 124.036 20.499C124.479 20.2346 124.994 20.115 125.508 20.1568C125.911 20.1265 126.315 20.1873 126.691 20.3345C127.067 20.4818 127.405 20.7118 127.681 21.0075C127.956 21.3032 128.161 21.657 128.281 22.0428C128.401 22.4285 128.432 22.8363 128.373 23.2359V28.595H126.739V23.6462C126.739 22.3159 126.161 21.6542 124.953 21.6542C124.679 21.6415 124.406 21.6881 124.153 21.7907C123.899 21.8934 123.67 22.0497 123.482 22.2489C123.295 22.4482 123.152 22.6857 123.065 22.9451C122.977 23.2046 122.947 23.4799 122.976 23.7521V28.5952H121.342V20.3167ZM130.976 17.0849H132.61V28.5952H130.976V17.0849ZM134.881 24.4524C134.829 23.9083 134.892 23.3593 135.064 22.8406C135.237 22.322 135.516 21.8451 135.883 21.4406C136.251 21.0361 136.699 20.713 137.199 20.4918C137.699 20.2706 138.239 20.1564 138.786 20.1564C139.333 20.1564 139.873 20.2706 140.373 20.4918C140.873 20.713 141.321 21.0361 141.689 21.4406C142.056 21.8451 142.335 22.322 142.508 22.8406C142.68 23.3593 142.743 23.9083 142.69 24.4524C142.743 24.997 142.682 25.5466 142.51 26.066C142.338 26.5854 142.059 27.063 141.691 27.4681C141.323 27.8733 140.875 28.1971 140.374 28.4187C139.874 28.6402 139.333 28.7547 138.786 28.7547C138.239 28.7547 137.698 28.6402 137.197 28.4187C136.697 28.1971 136.249 27.8733 135.881 27.4681C135.513 27.063 135.234 26.5854 135.062 26.066C134.89 25.5466 134.828 24.997 134.881 24.4524ZM141.009 24.4524C141.009 22.6579 140.203 21.6085 138.788 21.6085C137.368 21.6085 136.569 22.6579 136.569 24.4524C136.569 26.2613 137.368 27.3026 138.788 27.3026C140.203 27.3026 141.009 26.2541 141.009 24.4524ZM144.41 26.2541C144.41 24.7638 145.52 23.9047 147.489 23.7826L149.732 23.6534V22.9388C149.732 22.0644 149.154 21.5708 148.037 21.5708C147.125 21.5708 146.493 21.9056 146.312 22.4909H144.73C144.897 21.0689 146.235 20.157 148.113 20.157C150.188 20.157 151.359 21.1902 151.359 22.9388V28.5952H149.786V27.4318H149.656C149.394 27.8491 149.026 28.1893 148.589 28.4177C148.152 28.646 147.662 28.7544 147.17 28.7316C146.822 28.7678 146.471 28.7307 146.139 28.6228C145.807 28.5149 145.5 28.3385 145.24 28.1051C144.981 27.8717 144.772 27.5863 144.629 27.2675C144.486 26.9487 144.412 26.6035 144.41 26.2541ZM149.732 25.5466V24.8545L147.71 24.9837C146.57 25.06 146.053 25.4479 146.053 26.1776C146.053 26.9227 146.699 27.3564 147.588 27.3564C147.849 27.3828 148.112 27.3565 148.362 27.2791C148.612 27.2018 148.844 27.0749 149.044 26.906C149.244 26.7372 149.408 26.5298 149.526 26.2963C149.644 26.0627 149.714 25.8078 149.732 25.5466ZM153.506 24.4524C153.506 21.8364 154.851 20.1794 156.942 20.1794C157.46 20.1556 157.973 20.2795 158.423 20.5367C158.872 20.7939 159.239 21.1737 159.481 21.6318H159.603V17.0847H161.237V28.595H159.671V27.287H159.542C159.282 27.742 158.902 28.1171 158.444 28.3717C157.985 28.6263 157.466 28.7507 156.942 28.7314C154.836 28.7314 153.506 27.0742 153.506 24.4522V24.4524ZM155.194 24.4524C155.194 26.2081 156.021 27.2649 157.405 27.2649C158.782 27.2649 159.633 26.1931 159.633 24.4594C159.633 22.7342 158.773 21.6471 157.405 21.6471C156.03 21.6471 155.194 22.7108 155.194 24.4524ZM167.996 24.4524C167.944 23.9084 168.007 23.3594 168.179 22.8409C168.352 22.3223 168.631 21.8455 168.998 21.441C169.366 21.0366 169.814 20.7135 170.314 20.4923C170.813 20.2712 171.354 20.157 171.9 20.157C172.447 20.157 172.987 20.2712 173.487 20.4923C173.987 20.7135 174.435 21.0366 174.803 21.441C175.17 21.8455 175.449 22.3223 175.622 22.8409C175.794 23.3594 175.856 23.9084 175.804 24.4524C175.858 24.9971 175.796 25.5468 175.624 26.0664C175.452 26.5859 175.173 27.0637 174.806 27.4691C174.438 27.8744 173.99 28.1983 173.489 28.42C172.989 28.6417 172.448 28.7562 171.9 28.7562C171.353 28.7562 170.812 28.6417 170.312 28.42C169.811 28.1983 169.363 27.8744 168.995 27.4691C168.627 27.0637 168.349 26.5859 168.177 26.0664C168.005 25.5468 167.943 24.9971 167.996 24.4524ZM174.124 24.4524C174.124 22.6579 173.318 21.6085 171.903 21.6085C170.483 21.6085 169.684 22.6579 169.684 24.4524C169.684 26.2613 170.483 27.3026 171.903 27.3026C173.318 27.3026 174.124 26.2541 174.124 24.4524ZM177.997 20.3167H179.569V21.6318H179.691C179.899 21.1594 180.248 20.7634 180.691 20.499C181.134 20.2346 181.648 20.115 182.162 20.1568C182.565 20.1265 182.969 20.1873 183.345 20.3345C183.722 20.4818 184.06 20.7118 184.335 21.0075C184.61 21.3032 184.815 21.657 184.935 22.0428C185.055 22.4285 185.087 22.8363 185.027 23.2359V28.595H183.394V23.6462C183.394 22.3159 182.815 21.6542 181.607 21.6542C181.334 21.6415 181.061 21.6881 180.807 21.7907C180.553 21.8934 180.324 22.0497 180.137 22.2489C179.949 22.4482 179.806 22.6857 179.719 22.9451C179.632 23.2046 179.601 23.4799 179.63 23.7521V28.5952H177.997L177.997 20.3167ZM194.259 18.2556V20.3544H196.053V21.7305H194.259V25.9873C194.259 26.8545 194.617 27.2344 195.43 27.2344C195.638 27.2336 195.846 27.221 196.053 27.1965V28.5575C195.759 28.61 195.462 28.6379 195.164 28.641C193.347 28.641 192.624 28.0018 192.624 26.4058V21.7305H191.309V20.3542H192.624V18.2558L194.259 18.2556ZM198.284 17.0849H199.904V21.6471H200.033C200.25 21.1703 200.609 20.7721 201.061 20.5067C201.513 20.2413 202.035 20.1216 202.557 20.164C202.958 20.1422 203.359 20.2091 203.731 20.3599C204.103 20.5107 204.437 20.7418 204.709 21.0366C204.981 21.3314 205.185 21.6827 205.306 22.0653C205.427 22.448 205.462 22.8526 205.409 23.2504V28.5952H203.773V23.6534C203.773 22.331 203.157 21.6614 202.003 21.6614C201.722 21.6384 201.44 21.677 201.175 21.7745C200.911 21.8721 200.671 22.0262 200.473 22.2261C200.274 22.426 200.122 22.6669 200.026 22.9319C199.93 23.1969 199.893 23.4796 199.918 23.7602V28.5952H198.284V17.0849ZM214.935 26.3598C214.713 27.1164 214.232 27.771 213.576 28.2088C212.921 28.6467 212.132 28.84 211.348 28.755C210.802 28.7694 210.26 28.6649 209.759 28.4489C209.258 28.2328 208.81 27.9103 208.447 27.5037C208.083 27.0972 207.812 26.6163 207.652 26.0945C207.493 25.5727 207.449 25.0225 207.524 24.482C207.451 23.9398 207.496 23.3884 207.655 22.865C207.814 22.3416 208.083 21.8585 208.445 21.4484C208.807 21.0382 209.253 20.7107 209.752 20.4878C210.252 20.265 210.794 20.1521 211.341 20.1568C213.644 20.1568 215.034 21.7305 215.034 24.3301V24.9002H209.188V24.9918C209.162 25.2956 209.201 25.6014 209.3 25.8896C209.4 26.1777 209.558 26.4419 209.766 26.6652C209.973 26.8885 210.225 27.066 210.505 27.1862C210.786 27.3065 211.088 27.3668 211.393 27.3634C211.783 27.4104 212.179 27.34 212.53 27.1613C212.881 26.9826 213.17 26.7036 213.362 26.3598H214.935ZM209.188 23.692H213.369C213.39 23.4142 213.352 23.1351 213.258 22.8727C213.165 22.6103 213.017 22.3704 212.825 22.1685C212.633 21.9665 212.401 21.8069 212.144 21.7C211.887 21.593 211.61 21.541 211.332 21.5474C211.049 21.5439 210.769 21.5969 210.507 21.7034C210.245 21.81 210.007 21.9678 209.808 22.1677C209.608 22.3675 209.45 22.6054 209.344 22.8672C209.237 23.129 209.184 23.4094 209.188 23.692Z" fill="white"/>
</svg>
