<svg width="283" height="80" viewBox="0 0 283 80" fill="none" xmlns="http://www.w3.org/2000/svg">
<rect width="283" height="80" rx="2" fill="#252539"/>
<path d="M57.8971 36.8378C57.8971 36.8378 42.7246 28.4252 41.8312 27.9338C40.9378 27.4424 40.0444 27.7402 40.0444 28.7676V65.0238C40.0444 65.798 40.6847 66.1256 41.4589 65.7087C42.2332 65.2769 57.8971 56.5963 57.8971 56.5963C57.8971 56.5963 60.0263 55.42 61.0834 54.8244C62.7957 53.8715 66.2204 51.9805 66.2204 51.9805C66.2204 51.9805 73.2929 48.0645 74.231 47.5434C75.169 47.0222 75.0797 46.3075 74.2905 45.9055C73.5014 45.5035 66.2352 41.4387 66.2352 41.4387L57.8971 36.8378Z" fill="url(#paint0_linear)"/>
<path d="M60.6965 46.6651L40.7445 27.7552C40.2829 27.8595 40 28.2168 40 28.7975V64.9793C40 65.4706 40.1936 65.7684 40.4467 65.8727L60.6965 46.6651Z" fill="url(#paint1_linear)"/>
<mask id="mask0" mask-type="alpha" maskUnits="userSpaceOnUse" x="40" y="27" width="21" height="39">
<path d="M60.6965 46.6651L40.7445 27.7552C40.2829 27.8595 40 28.2168 40 28.7975V64.9793C40 65.4706 40.1936 65.7684 40.4467 65.8727L60.6965 46.6651Z" fill="black"/>
</mask>
<g mask="url(#mask0)">
</g>
<mask id="mask1" mask-type="alpha" maskUnits="userSpaceOnUse" x="40" y="46" width="27" height="20">
<path d="M41.2633 65.7691L52.8027 59.4261C55.6466 57.8478 57.8949 56.5971 57.8949 56.5971L66.2778 52.0856L60.6942 46.6658L40.4443 65.8733C40.6677 65.9478 41.0697 65.9031 41.3824 65.7542" fill="black"/>
</mask>
<g mask="url(#mask1)">
<path d="M57.8651 36.8387C57.8353 36.9131 42.6628 28.4856 41.7843 28.0538C40.8909 27.488 39.9976 27.8007 39.9976 28.7983V65.1289C39.9976 65.933 40.6378 66.2605 41.3376 65.8734C42.1863 65.3969 57.8353 56.7163 57.8651 56.6419L66.2033 52.0261C66.1586 52.0856 73.2163 48.1697 74.0947 47.7081C75.1072 47.1274 75.003 46.4127 74.2436 46.0702C73.4247 45.5938 66.1586 41.5289 66.2033 41.4545L57.8651 36.8387Z" fill="url(#paint2_linear)"/>
</g>
<path d="M41.7986 27.9188C41.4115 27.7252 41.0392 27.6657 40.7266 27.7401L60.6935 46.6797L66.2176 41.4535L57.8943 36.8377C57.8943 36.8377 50.0475 32.4899 45.3126 29.8693L41.7986 27.9188Z" fill="url(#paint3_linear)"/>
<mask id="mask2" mask-type="alpha" maskUnits="userSpaceOnUse" x="40" y="27" width="27" height="20">
<path d="M41.7986 27.9188C41.4115 27.7252 41.0392 27.6657 40.7266 27.7401L60.6935 46.6797L66.2176 41.4535L57.8943 36.8377C57.8943 36.8377 50.0475 32.4899 45.3126 29.8693L41.7986 27.9188Z" fill="black"/>
</mask>
<g mask="url(#mask2)">
</g>
<path d="M181.69 53.0535L180.037 54.6169C179.65 54.8254 179.278 55.0785 178.906 55.2423C177.759 55.7634 176.598 55.8974 175.555 55.8974C174.454 55.8974 172.726 55.823 170.969 54.5425C168.528 52.8153 167.456 49.8225 167.456 47.2317C167.456 41.8565 171.803 39.2211 175.362 39.2211C176.598 39.2211 177.878 39.5338 178.906 40.1889C180.633 41.3354 181.079 42.8244 181.318 43.6284L173.218 46.919L170.567 47.1275C171.431 51.5348 174.394 54.0958 177.67 54.0958C179.308 54.0958 180.514 53.5598 181.63 53.0089C181.63 53.0089 181.854 52.8897 181.69 53.0535ZM176.747 44.2091C177.402 43.9709 177.729 43.7624 177.729 43.271C177.729 41.8714 176.196 40.2633 174.349 40.2633C172.994 40.2633 170.433 41.3503 170.433 45.1174C170.433 45.7129 170.508 46.3383 170.538 46.9637L176.747 44.2091Z" fill="white"/>
<path d="M164.776 52.8595C164.776 54.1996 165.014 54.408 166.146 54.5123C166.741 54.5867 167.322 54.6165 167.903 54.6761L166.637 55.4354H160.577C161.366 54.3932 161.515 54.2889 161.515 53.604V52.8297L161.5 32.2821H158.82L161.396 31.0314H166.309C165.237 31.6567 164.925 32.029 164.791 33.235L164.776 52.8595Z" fill="white"/>
<path d="M155.38 40.9183C156.169 41.5735 157.807 42.9582 157.807 45.5788C157.807 48.1398 156.378 49.3458 154.934 50.4923C154.487 50.939 153.966 51.4304 153.966 52.1897C153.966 52.9491 154.487 53.366 154.859 53.6787L156.095 54.6465C157.599 55.927 158.969 57.1033 158.969 59.4856C158.969 62.7316 155.842 66.0222 149.946 66.0222C144.972 66.0222 142.575 63.6398 142.575 61.0788C142.575 59.8281 143.186 58.0711 145.226 56.8651C147.355 55.5548 150.228 55.3761 151.777 55.2719C151.301 54.6465 150.75 53.9914 150.75 52.9193C150.75 52.3386 150.928 51.9813 151.092 51.5644C150.72 51.5942 150.333 51.6388 149.99 51.6388C146.357 51.6388 144.302 48.8991 144.302 46.2041C144.302 44.6109 145.017 42.854 146.506 41.5735C148.457 39.9505 150.794 39.6676 152.641 39.6676H159.713L157.51 40.9183H155.38ZM152.968 56.2397C152.685 56.195 152.521 56.195 152.179 56.195C151.866 56.195 149.99 56.2695 148.546 56.7609C147.787 57.0438 145.568 57.8925 145.568 60.3939C145.568 62.8954 147.95 64.697 151.658 64.697C154.978 64.697 156.735 63.074 156.735 60.9002C156.735 59.0836 155.589 58.1307 152.968 56.2397ZM153.936 49.5692C154.725 48.78 154.8 47.6782 154.8 47.0528C154.8 44.5663 153.34 40.7099 150.497 40.7099C149.618 40.7099 148.65 41.1566 148.099 41.8564C147.519 42.5711 147.355 43.5091 147.355 44.4025C147.355 46.7104 148.695 50.537 151.628 50.537C152.477 50.537 153.4 50.1201 153.936 49.5692Z" fill="white"/>
<path d="M133.999 55.8974C128.534 55.8974 125.616 51.5795 125.616 47.6784C125.616 43.1222 129.293 39.2211 134.52 39.2211C139.567 39.2211 142.739 43.2264 142.739 47.4401C142.739 51.5497 139.612 55.8974 133.999 55.8974ZM138.272 53.0833C139.106 51.9666 139.314 50.567 139.314 49.212C139.314 46.1299 137.87 40.2633 133.582 40.2633C132.45 40.2633 131.304 40.71 130.47 41.4545C129.13 42.6755 128.877 44.2091 128.877 45.7129C128.877 49.1673 130.559 54.8552 134.743 54.8552C136.113 54.8552 137.483 54.2 138.272 53.0833Z" fill="white"/>
<path d="M115.685 55.8974C110.221 55.8974 107.302 51.5795 107.302 47.6784C107.302 43.1222 110.98 39.2211 116.206 39.2211C121.254 39.2211 124.425 43.2264 124.425 47.4401C124.425 51.5497 121.299 55.8974 115.685 55.8974ZM119.958 53.0833C120.792 51.9666 121.001 50.567 121.001 49.212C121.001 46.1299 119.542 40.2633 115.268 40.2633C114.122 40.2633 112.99 40.71 112.156 41.4545C110.801 42.6755 110.563 44.2091 110.563 45.7129C110.563 49.1673 112.26 54.8552 116.43 54.8552C117.799 54.8552 119.169 54.2 119.958 53.0833Z" fill="white"/>
<path d="M105.038 54.8696L100.408 55.9417C98.5317 56.2395 96.8492 56.5075 95.0624 56.5075C86.1287 56.4926 82.7339 49.8816 82.7339 44.7001C82.7339 38.3869 87.5581 32.5204 95.8069 32.5204C97.549 32.5204 99.2315 32.7735 100.765 33.2053C103.192 33.8902 104.324 34.7389 105.038 35.2303L102.343 37.8062L101.212 38.0593L102.016 36.7639C100.914 35.6919 98.9039 33.6967 95.0922 33.6967C89.9851 33.6967 86.1287 37.5977 86.1287 43.3004C86.1287 49.4201 90.5211 55.1823 97.5788 55.1823C99.6484 55.1823 100.72 54.7654 101.688 54.3783V49.1223L96.8045 49.3903L99.3953 47.9907H106.259L105.426 48.8096C105.202 49.0031 105.172 49.0627 105.098 49.3307C105.068 49.6285 105.038 50.5666 105.038 50.909V54.8696Z" fill="white"/>
<path d="M191.681 53.2024V62.0022H189.939V39.6231H191.681V42.1692C192.813 40.5165 194.897 39.2211 197.294 39.2211C201.612 39.2211 204.531 42.5117 204.531 47.7082C204.531 52.8749 201.627 56.225 197.294 56.225C195.031 56.225 192.991 55.0487 191.681 53.2024ZM202.744 47.8422C202.744 43.8815 200.704 40.8589 197.071 40.8589C194.823 40.8589 192.664 42.6457 191.726 44.2091V51.4454C192.664 53.0089 194.823 54.8552 197.071 54.8552C200.704 54.8552 202.744 51.8028 202.744 47.8422Z" fill="white"/>
<path d="M206.914 33.4132H208.7V55.8965H206.914V33.4132Z" fill="white"/>
<path d="M228.131 60.4529C228.503 60.6167 229.143 60.7209 229.545 60.7209C230.617 60.7209 231.347 60.2891 232.017 58.7406L233.283 55.852L226.418 39.5181H228.369L234.25 53.6781L240.087 39.5181H242.053L233.685 59.2766C232.821 61.3165 231.451 62.2992 229.575 62.2992C229.009 62.2992 228.265 62.195 227.833 62.061L228.131 60.4529Z" fill="white"/>
<path d="M223.202 55.8826C223.083 55.3168 222.994 54.8254 222.934 54.4085C222.875 53.9916 222.845 53.5747 222.845 53.1429C222.249 54.0214 221.401 54.7658 220.299 55.3465C219.212 55.9272 218.17 56.2101 216.755 56.2101C215.043 56.2101 213.718 55.7932 212.78 54.9296C211.842 54.0809 211.365 52.9195 211.365 51.4603C211.365 50.0012 212.05 48.81 213.42 47.9017C214.79 46.9935 216.562 46.5319 218.75 46.5319H222.83V44.5069C222.83 43.3455 222.428 42.4223 221.639 41.7672C220.85 41.0972 219.733 40.7696 218.289 40.7696C216.964 40.7696 215.892 41.0823 215.073 41.6779C214.269 42.2883 213.852 43.0477 213.852 43.956H212.065L212.035 43.8666C211.976 42.6308 212.527 41.5587 213.733 40.6207C214.924 39.6826 216.472 39.2211 218.393 39.2211C220.299 39.2211 221.847 39.6826 223.009 40.6058C224.17 41.5141 224.751 42.8392 224.751 44.5516V52.592C224.751 53.1727 224.781 53.7236 224.855 54.2745C224.93 54.8254 225.049 55.3614 225.198 55.8826H223.202ZM216.979 54.7063C218.468 54.7063 219.54 54.3638 220.627 53.7087C221.713 53.0535 222.443 52.1899 222.83 51.1477V48.006H218.721C217.157 48.006 215.862 48.3484 214.834 49.0631C213.807 49.7629 213.301 50.6116 213.301 51.6092C213.301 52.5473 213.628 53.2918 214.284 53.8576C214.954 54.4234 215.847 54.7063 216.979 54.7063Z" fill="white"/>
<path d="M82.1377 18.2709C82.1377 15.0697 84.6987 13 87.8851 13C90.0143 13 91.4139 13.9529 92.2924 15.1143L90.729 15.9481C90.1334 15.1888 89.106 14.5932 87.8851 14.5932C85.7261 14.5932 84.1031 16.1268 84.1031 18.2709C84.118 20.4001 85.7261 21.9486 87.8851 21.9486C89.0018 21.9486 89.9845 21.4722 90.4759 21.0255V19.4621H87.2002V17.8838H92.3817V21.6806C91.3097 22.7973 89.7761 23.5418 87.8851 23.5418C84.6987 23.5567 82.1377 21.4722 82.1377 18.2709Z" fill="white"/>
<path d="M94.8682 23.4076V13.1636H102.477V14.7419H96.8187V17.3773H102.358V18.9705H96.8187V21.8293H102.477V23.4076H94.8682Z" fill="white"/>
<path d="M107.643 23.4076V14.7419H104.338V13.1636H112.87V14.7419H109.564V23.4076H107.643Z" fill="white"/>
<path d="M119.704 13.1636H121.565V23.4076H119.704V13.1636Z" fill="white"/>
<path d="M126.896 23.4076V14.7419H123.591V13.1636H132.123V14.7419H128.817V23.4076H126.896Z" fill="white"/>
<path d="M138.495 18.2861C138.495 15.2486 140.833 13.0151 144.168 13.0151C147.474 13.0151 149.826 15.2486 149.826 18.2861C149.826 21.3235 147.459 23.557 144.168 23.557C140.833 23.557 138.495 21.3235 138.495 18.2861ZM147.801 18.1967C147.801 16.1122 146.372 14.5488 144.153 14.5488C141.92 14.5488 140.505 16.1122 140.505 18.1967C140.505 20.2664 141.92 21.8447 144.153 21.8447C146.372 21.8447 147.801 20.2813 147.801 18.1967Z" fill="white"/>
<path d="M159.609 23.4076L153.906 16.0819V23.4076H151.985V13.1636H153.951L159.534 20.2659V13.1636H161.455V23.4076H159.609Z" fill="white"/>
<defs>
<linearGradient id="paint0_linear" x1="48.2747" y1="39.7577" x2="60.9189" y2="58.3129" gradientUnits="userSpaceOnUse">
<stop stop-color="#FF177B"/>
<stop offset="1" stop-color="#FFEC73"/>
</linearGradient>
<linearGradient id="paint1_linear" x1="53.6569" y1="13.7793" x2="30.9455" y2="62.0085" gradientUnits="userSpaceOnUse">
<stop stop-color="#064AA2"/>
<stop offset="1" stop-color="#63FFD4"/>
</linearGradient>
<linearGradient id="paint2_linear" x1="60.5321" y1="35.4318" x2="32.5804" y2="52.1532" gradientUnits="userSpaceOnUse">
<stop stop-color="#FF4521"/>
<stop offset="1" stop-color="#8A33DB"/>
</linearGradient>
<linearGradient id="paint3_linear" x1="44.502" y1="21.6714" x2="54.5093" y2="47.6833" gradientUnits="userSpaceOnUse">
<stop stop-color="#00A3B5"/>
<stop offset="1" stop-color="#D6FFA1"/>
</linearGradient>
</defs>
</svg>
