<svg width="120" height="120" viewBox="0 0 120 120" fill="none" xmlns="http://www.w3.org/2000/svg">
<path d="M90.7926 51.9256C89.5233 52.4196 82.7736 59.1237 78.8743 61.6852C73.0368 65.5161 68.4534 65.5617 59.1271 66.7702C63.6116 57.3907 64.3337 57.0334 63.6268 53.2329C62.6843 52.8681 61.757 52.45 60.8373 51.9864C44.2673 45.6472 39.243 31.061 45.9623 19.766C30.654 23.9921 19.4654 38.4795 20.5447 55.498V56.7826C20.5447 61.8144 15.8017 69.9474 12.6853 74.7588C11.5908 76.4462 12.5485 78.0424 14.8212 78.6657L20.5447 79.8666V95.5778C20.5447 99.0286 23.3419 101.833 26.8003 101.833H44.2216L45.9471 116.184H83.4121L78.5323 79.0838C85.2895 72.9802 90.9218 61.4496 90.7926 51.9256Z" fill="#83E699"/>
<path d="M86.8784 109.981C82.8955 79.6917 82.8879 81.4551 83.572 80.6875C91.5074 71.9464 90.6029 66.4281 93.4228 67.6822C94.1981 68.0243 94.5478 68.9364 94.2057 69.7117C92.1383 74.3711 89.4247 78.6884 86.3236 82.2228L89.9188 109.579C90.1848 111.593 87.1445 112.003 86.8784 109.981Z" fill="#252539"/>
<path d="M88.771 116.04C88.771 117.947 91.6517 117.947 91.6517 116.04C91.6517 114.139 88.771 114.132 88.771 116.04Z" fill="#252539"/>
<path d="M43.271 103.566C41.2416 103.566 41.234 100.496 43.271 100.496C52.5518 100.496 54.186 97.2348 54.2012 97.2044C54.8929 95.3345 57.7812 96.3834 57.0591 98.3293C56.8615 98.8614 54.7941 103.566 43.271 103.566Z" fill="#252539"/>
<path d="M11.545 51.4543C12.2518 36.1232 21.145 22.297 34.7582 15.3726C36.5673 14.4529 37.9658 17.1892 36.1492 18.1165C23.5165 24.5469 15.2618 37.3773 14.6082 51.5987C14.5245 53.6205 11.4537 53.4913 11.545 51.4543Z" fill="#252539"/>
<path d="M43.4691 116.564L41.9109 103.566H25.8577C21.5632 103.566 18.0667 100.07 18.0667 95.7754V81.3108C17.9907 81.2956 13.5442 80.3683 13.4682 80.3455C9.93373 79.3726 8.9076 76.4994 10.4506 74.1204C15.2848 66.6638 18.0591 60.4158 18.0591 56.9878V55.7489C17.0102 38.6087 27.7047 23.6349 43.6439 18.7627C45.5974 18.1698 46.4791 21.1114 44.5408 21.7042C29.8406 26.204 20.1494 39.9997 21.1299 55.612C21.4339 62.1033 16.7214 70.1147 13.0273 75.8002C12.0924 77.2443 14.4183 77.4116 19.9138 78.5669C20.6283 78.7189 21.1375 79.3422 21.1375 80.0719V95.783C21.1375 98.3826 23.2506 100.503 25.8577 100.503H43.2791C44.0544 100.503 44.7156 101.081 44.8069 101.856L46.5323 116.207C46.6311 117.05 46.0306 117.818 45.1869 117.917C44.3356 118.008 43.5755 117.4 43.4691 116.564Z" fill="#252539"/>
<path d="M80.9417 116.579C75.6591 76.3854 75.7047 78.9166 76.556 78.1413C82.9788 72.3341 88.0334 61.6472 88.307 53.2938C88.3754 51.2795 91.4462 51.3555 91.3778 53.3926C91.0814 62.3845 86.0039 73.3679 79.2087 79.8667L83.9821 116.176C84.2481 118.191 81.2077 118.593 80.9417 116.579Z" fill="#252539"/>
<path d="M66.8267 60.0054C67.7312 58.1127 68.1417 56.1821 68.0277 54.2667C67.83 50.869 67.108 49.3108 66.7963 49.0904C65.2837 48.6192 63.7103 47.9655 62.1749 47.1826C51.336 43.1009 44.6016 35.0895 44.6016 26.242C44.6016 13.2216 59.2714 2.62585 77.3008 2.62585C95.3303 2.62585 110 13.2216 110 26.242C110 36.3816 101.084 45.3583 87.7977 48.604C87.5165 48.7104 87.2352 48.8092 86.954 48.908C83.2372 56.4557 76.2063 61.1911 68.4077 62.202C67.184 62.3465 66.3023 61.0923 66.8267 60.0054ZM77.3008 5.68903C60.9664 5.68903 47.6799 14.9014 47.6799 26.2344C47.6799 33.7897 53.6771 40.7218 63.3379 44.3322C64.098 44.6135 65.0025 45.3051 67.7768 46.1869C71.1593 47.2586 71.6077 54.9811 70.6044 58.6448C76.86 57.0258 81.8234 52.7389 84.4457 47.0078C84.8029 46.2325 85.3426 46.2325 86.7944 45.6852C86.8552 45.6624 86.916 45.6472 86.9768 45.632C98.9103 42.7512 106.922 34.9603 106.922 26.242C106.922 14.909 93.6352 5.68903 77.3008 5.68903Z" fill="#252539"/>
<path fill-rule="evenodd" clip-rule="evenodd" d="M92.8903 16.7778C93.6717 17.5585 93.6722 18.8249 92.8915 19.6062L74.7165 37.7813C73.9353 38.5618 72.6695 38.5615 71.8886 37.7807L62.8055 28.6976C62.0245 27.9165 62.0245 26.6502 62.8055 25.8691C63.5866 25.0881 64.8529 25.0881 65.6339 25.8691L73.3034 33.5386L90.0619 16.779C90.8426 15.9976 92.109 15.9971 92.8903 16.7778Z" fill="#252539"/>
</svg>
