<svg width="120" height="120" viewBox="0 0 120 120" fill="none" xmlns="http://www.w3.org/2000/svg">
<path d="M72.0216 23.3507C70.835 27.1198 68.5782 30.4081 65.5924 32.851C64.1964 34.0376 62.6143 35.0148 60.8926 35.7283C58.4264 36.8063 55.7042 37.4112 52.8347 37.4112C50.8649 37.4112 48.9648 37.1242 47.1655 36.5969V77.6695H87.2076V23.3429H72.0216V23.3507Z" fill="#83E699"/>
<path d="M99.5991 79.5463C99.5991 81.6247 102.748 81.6325 102.748 79.5463C102.748 77.4678 99.5991 77.4678 99.5991 79.5463Z" fill="#252539"/>
<path d="M92.6661 42.0333V22.3346C92.6661 19.4496 90.3162 17.0997 87.4312 17.0997H70.1599C68.0892 17.0997 68.0815 13.9666 70.1599 13.9666H87.4312C92.0457 13.9666 95.7993 17.7202 95.7993 22.3346V42.0333C95.807 44.1118 92.6661 44.1118 92.6661 42.0333Z" fill="#252539"/>
<path d="M87.4385 101.502H77.6511C75.5805 101.502 75.5727 98.3686 77.6511 98.3686H87.4385C94.2322 98.3686 99.754 92.8467 99.754 86.053V84.8122C99.754 82.7415 102.887 82.7337 102.887 84.8122C102.887 95.8171 95.1008 101.502 87.4385 101.502Z" fill="#252539"/>
<path d="M87.439 94.421H47.5995C42.9851 94.421 39.2314 90.6674 39.2314 86.0529V29.6557C39.2314 27.585 42.3646 27.5772 42.3646 29.6557V86.0529C42.3646 88.9379 44.7145 91.2878 47.5995 91.2878H87.439C90.324 91.2878 92.6739 88.9379 92.6739 86.0529V73.7839C92.6739 71.7132 95.8148 71.7054 95.8148 73.7839V86.0529C95.8071 90.6674 92.0535 94.421 87.439 94.421Z" fill="#252539"/>
<path d="M54.3075 107.791C52.8417 105.759 56.5333 104.371 60.1163 102.898C64.6377 101.036 69.7563 98.9268 73.2074 93.18C74.2777 91.3963 76.961 93.0249 75.8985 94.7932C70.2216 104.255 60.5428 105.224 56.5023 108.14C55.7888 108.652 54.8116 108.489 54.3075 107.791Z" fill="#252539"/>
<path d="M27.3498 85.9366C27.9314 82.9663 25.6126 75.684 24.4958 72.1785C23.0688 67.6881 22.7741 66.0828 26.7604 56.1946C28.8931 50.8977 31.3128 44.9028 31.3826 38.1633C31.4214 34.4252 33.9884 32.3235 36.5089 32.1839C41.5809 31.8892 44.1092 39.3422 40.9993 39.7377C40.1462 39.8385 39.3551 39.2336 39.2466 38.3727C38.6959 33.9522 34.5545 34.6657 34.5235 38.1944C34.4537 45.5232 31.91 51.8206 29.6764 57.3657C25.8142 66.9514 26.3959 67.789 27.4894 71.2246C29.2731 76.8162 31.1112 83.0671 30.4364 86.5338C30.0332 88.5657 26.9465 87.9685 27.3498 85.9366Z" fill="#252539"/>
<path d="M89.1763 69.1773C89.1065 66.1372 91.5262 63.6167 94.5585 63.5469L95.5124 63.5236C98.4052 63.4848 101.065 65.6718 101.143 69.0454C101.213 72.0855 98.793 74.606 95.7606 74.6758L94.8067 74.6991C91.945 74.7456 89.2538 72.5819 89.1763 69.1773ZM95.5822 66.6568L94.6283 66.68C92.4258 66.7266 91.5494 69.4642 93.0462 70.899C94.2871 72.0855 98.0717 71.977 98.0019 68.9834C97.9786 67.758 97.0092 66.6568 95.5822 66.6568Z" fill="#252539"/>
<path d="M89.1528 60.0414C89.083 57.0013 91.5027 54.4808 94.5351 54.411L95.489 54.3877C98.3973 54.3102 101.042 56.5205 101.119 59.9096C101.189 62.9419 98.7695 65.4702 95.7372 65.54L94.7833 65.5633C91.9138 65.6098 89.2304 63.4383 89.1528 60.0414ZM95.5588 57.5209L94.6049 57.5442C92.4101 57.5907 91.526 60.3284 93.0228 61.7631C94.2792 62.9652 98.0405 62.7946 97.9785 59.8475C97.9552 58.6222 96.978 57.5209 95.5588 57.5209Z" fill="#252539"/>
<path d="M94.5113 45.275L95.4652 45.2518C100.436 45.1122 102.918 51.1924 99.5678 54.6978C98.5518 55.7603 97.1791 56.3652 95.7133 56.404C86.6938 56.6057 87.5857 45.4301 94.5113 45.275ZM92.9292 49.145C91.5409 50.5952 92.4018 53.2708 94.6974 53.2863C95.6513 53.2631 96.5044 53.3639 97.3032 52.5263C97.8151 51.9912 97.9779 51.394 97.9624 50.7038C97.9004 48.0282 94.2088 47.811 92.9292 49.145Z" fill="#252539"/>
<path d="M48.3748 116.043L51.8802 112.794L28.6916 87.7669L20.37 95.1578C18.819 96.5305 16.7328 94.1884 18.2838 92.8157L27.7532 84.4011C28.3891 83.8349 29.3663 83.8815 29.948 84.5097C57.2159 113.941 55.7036 112.003 55.6649 112.941C55.6338 113.81 55.5253 113.693 50.5075 118.346C48.9875 119.75 46.847 117.455 48.3748 116.043Z" fill="#252539"/>
<path d="M29.2656 99.1674C26.1634 101.044 23.325 96.3444 26.4271 94.4676C29.537 92.5985 32.3755 97.2905 29.2656 99.1674Z" fill="#252539"/>
<path d="M70.144 86.3709C67.0419 88.2478 64.2034 83.548 67.3055 81.6712C70.4155 79.8021 73.2539 84.4941 70.144 86.3709Z" fill="#252539"/>
<path d="M81.0874 41.7232H67.1277C65.057 41.7232 65.0493 38.59 67.1277 38.59H81.0874C83.1581 38.59 83.1659 41.7232 81.0874 41.7232Z" fill="#252539"/>
<path d="M77.0309 47.9275H67.3211C64.9945 47.9275 64.9945 44.4065 67.3211 44.4065H77.0309C79.3575 44.4065 79.3575 47.9275 77.0309 47.9275Z" fill="#252539"/>
<path d="M69.8419 58.785H53.1677C51.0971 58.785 51.0893 55.6519 53.1677 55.6519H69.8419C71.9125 55.6519 71.9203 58.785 69.8419 58.785Z" fill="#252539"/>
<path d="M61.117 64.9893H53.1677C51.0971 64.9893 51.0893 61.8561 53.1677 61.8561H61.117C63.1877 61.8561 63.1955 64.9893 61.117 64.9893Z" fill="#252539"/>
<path d="M70.1051 64.9893H66.1731C64.1024 64.9893 64.0947 61.8561 66.1731 61.8561H70.1051C72.1758 61.8561 72.1758 64.9893 70.1051 64.9893Z" fill="#252539"/>
<path d="M69.8419 71.6202H53.1677C51.0971 71.6202 51.0893 68.4871 53.1677 68.4871H69.8419C71.9125 68.4871 71.9203 71.6202 69.8419 71.6202Z" fill="#252539"/>
<path fill-rule="evenodd" clip-rule="evenodd" d="M63.1203 11.9073C63.7264 12.5127 63.7271 13.4947 63.1217 14.1009L51.2235 25.9991C50.9325 26.2898 50.5378 26.453 50.1265 26.4527C49.7151 26.4524 49.3207 26.2887 49.03 25.9977L43.0893 20.0493C42.484 19.4432 42.4846 18.4611 43.0908 17.8557C43.6969 17.2504 44.679 17.251 45.2843 17.8572L50.1289 22.708L60.9267 11.9088C61.5321 11.3026 62.5142 11.302 63.1203 11.9073Z" fill="#252539"/>
<path d="M53.2529 33.8282C62.042 33.8282 69.167 26.7032 69.167 17.9141C69.167 9.12497 62.042 2 53.2529 2C44.4638 2 37.3389 9.12497 37.3389 17.9141C37.3389 26.7032 44.4638 33.8282 53.2529 33.8282Z" stroke="#252539" stroke-width="3.10216" stroke-linecap="round" stroke-linejoin="round"/>
</svg>
