<svg width="120" height="120" viewBox="0 0 120 120" fill="none" xmlns="http://www.w3.org/2000/svg">
<path d="M54.251 31.8678C48.5835 24.0076 48.7001 13.3647 55.3437 5.97807C45.167 -0.410588 32.1493 8.11248 33.752 19.7024C34.7427 28.138 43.069 33.9512 51.5265 31.6857C52.0947 32.2102 52.8742 32.7857 53.8504 33.2592L54.251 31.8678Z" fill="#83E699"/>
<path d="M92.6626 80.8718L92.5752 80.9957C92.954 84.9658 88.9037 87.8651 85.2686 86.2188L82.4786 84.9512L79.7031 86.2115C76.0681 87.8651 72.0032 84.9585 72.3966 80.9811L72.1999 81.1049C66.3649 82.8096 62.2054 87.0929 60.1875 92.1121C63.4 94.8438 65.8331 98.4643 67.0934 102.886C79.8488 108.692 95.1321 106.958 106.35 97.7577C105.586 87.6102 97.1936 82.0228 92.6626 80.8718Z" fill="#83E699"/>
<path d="M106.94 104.001C106.94 106.026 110 106.026 110 104.001C110.007 101.976 106.94 101.976 106.94 104.001Z" fill="#252539"/>
<path d="M55.8171 38.5842C54.6734 38.2856 54.3456 36.8286 55.2416 36.0638C56.6767 34.8472 57.4853 32.9022 57.0992 30.8406C47.4835 19.7534 55.3436 2.40857 70.0441 2.40857C80.5049 2.40857 88.4452 11.7694 87.0684 21.662C85.9247 31.4161 76.4692 38.5624 66.3216 36.3187C63.2912 38.7518 59.3939 39.5167 55.8171 38.5842ZM58.9932 36.0565C59.9329 36.0419 61.0111 35.8816 62.1402 35.43C64.9084 34.3373 64.9667 32.9678 66.3216 33.332C75.5367 35.8015 84.2929 28.8082 84.2929 19.5785C84.2929 11.7257 77.9043 5.32972 70.0441 5.32972C62.1839 5.32972 55.7953 11.7184 55.7953 19.5785C55.7953 25.9818 59.627 28.9102 59.8528 29.8208C60.4064 32.0499 60.0276 34.2572 58.9932 36.0565Z" fill="#252539"/>
<path d="M50.6735 33.1499C46.361 34.0824 41.7716 33.2009 38.0419 30.44C26.0732 21.5381 32.2433 2.23376 47.3517 2.23376C50.4841 2.23376 53.5073 3.15892 56.0933 4.90724C56.7635 5.35889 56.9383 6.26219 56.4867 6.93238C55.0079 9.12506 53.5728 5.15491 47.3517 5.15491C39.5207 5.15491 33.7221 12.1919 34.7274 19.3892C35.4631 25.6394 40.7737 30.6003 47.3517 30.6003C50.4623 30.6003 51.0523 29.595 52.0358 30.491C52.6331 31.0374 53.296 31.4817 54.0099 31.8314C54.7384 32.1811 55.0371 33.0479 54.6874 33.7764C53.9152 35.379 52.094 34.2718 50.6735 33.1499Z" fill="#252539"/>
<path d="M71.5372 112.094C69.6724 111.628 70.3644 108.801 72.2365 109.267C82.7993 111.89 93.6171 110.338 102.723 105.589C104.428 104.7 105.782 107.279 104.071 108.175C94.3965 113.216 82.843 114.898 71.5372 112.094Z" fill="#252539"/>
<path d="M66.9549 103.483C66.5542 103.309 66.2556 102.966 66.1317 102.544C64.9589 98.3623 62.4165 94.5889 58.9855 91.9227C58.4683 91.522 58.2862 90.83 58.5266 90.2254C60.865 84.4559 65.5563 80.1142 71.4059 78.3076C73.2489 77.7394 74.1085 80.5222 72.2655 81.0904C67.596 82.5327 63.7788 85.8764 61.659 90.3419C64.9516 93.1756 67.4357 96.9273 68.7397 101.072C81.2256 106.23 95.1684 103.935 105.301 95.9875C104.486 89.1254 99.7068 83.2102 93.2089 81.1414C92.444 80.901 92.0215 80.0778 92.2619 79.3129C92.5096 78.548 93.3254 78.1255 94.0903 78.3659C106.343 82.2705 109.614 96.2279 107.749 97.7577C96.5962 106.9 80.8832 109.537 66.9549 103.483Z" fill="#252539"/>
<path d="M78.3922 61.2979H75.1214C73.1982 61.2979 73.1909 58.384 75.1214 58.384H78.3922C80.3153 58.384 80.3226 61.2979 78.3922 61.2979Z" fill="#252539"/>
<path d="M90.1788 61.2979H86.908C84.9848 61.2979 84.9776 58.384 86.908 58.384H90.1788C92.102 58.384 92.1092 61.2979 90.1788 61.2979Z" fill="#252539"/>
<path d="M94.9209 102.274V93.7948C94.9209 91.8717 97.8348 91.8644 97.8348 93.7948V102.274C97.8348 104.197 94.9209 104.197 94.9209 102.274Z" fill="#252539"/>
<path d="M67.4653 102.274V93.7948C67.4653 91.8717 70.3792 91.8644 70.3792 93.7948V102.274C70.3792 104.197 67.4653 104.197 67.4653 102.274Z" fill="#252539"/>
<path d="M28.4116 87.1074L29.5262 87.02L39.0545 90.4657" fill="#252539"/>
<path d="M51.0818 87.1074L49.96 87.02L40.4316 90.4657" fill="#252539"/>
<path d="M19.6704 113.114V104.299C19.6704 102.376 22.5843 102.369 22.5843 104.299V113.114C22.5843 115.037 19.6704 115.044 19.6704 113.114Z" fill="#252539"/>
<path d="M56.5815 113.143V104.299C56.5815 102.376 59.4954 102.369 59.4954 104.299V113.143C59.4954 115.066 56.5815 115.073 56.5815 113.143Z" fill="#252539"/>
<path d="M23.5166 69.5004C22.7881 69.0779 21.3603 68.6991 20.2895 66.1421C16.7564 57.6701 26.1609 58.435 24.5875 61.6693C24.2378 62.3905 23.3636 62.6965 22.6425 62.3468C22.5478 62.2958 22.4749 62.3031 22.4603 62.3031C22.4094 62.3905 22.2126 63.1846 22.9775 65.0203C23.9682 67.3951 25.4616 66.368 26.2192 68.4222C26.8676 70.1706 24.2742 71.2196 23.5166 69.5004Z" fill="#252539"/>
<path d="M54.1335 70.2871C52.8441 69.8064 52.6474 67.8832 54.9858 66.7395C55.5321 66.47 56.013 66.2369 56.5229 65.0203C57.2732 63.221 57.0984 62.4197 57.0037 62.2886C57.0037 62.3031 56.9454 62.3031 56.858 62.3469C55.1242 63.1846 53.8567 60.5621 55.5904 59.7244C58.0017 58.5588 61.6003 60.431 59.2182 66.1422C58.1473 68.6991 56.7195 69.0779 55.9911 69.5004C55.6633 70.2143 54.8474 70.5567 54.1335 70.2871Z" fill="#252539"/>
<path d="M39.7688 86.8525C31.7994 86.7287 24.9372 79.2837 23.4147 69.1508C23.1306 67.2495 26.008 66.8051 26.2994 68.7137C27.6107 77.4334 33.2781 83.8367 39.7761 83.9387C46.223 83.844 51.8905 77.4407 53.2017 68.7137C53.4931 66.7978 56.3706 67.2495 56.0865 69.1508C54.5567 79.2837 47.6945 86.7287 39.7688 86.8525Z" fill="#252539"/>
<path d="M35.7186 68.1091H32.2146C30.2915 68.1091 30.2842 65.1952 32.2146 65.1952H35.7186C37.649 65.1952 37.649 68.1091 35.7186 68.1091Z" fill="#252539"/>
<path d="M46.784 68.1091H43.2801C41.3569 68.1091 41.3496 65.1952 43.2801 65.1952H46.784C48.7071 65.1952 48.7144 68.1091 46.784 68.1091Z" fill="#252539"/>
<path d="M9.73334 106.572C10.4764 95.1716 19.2253 86.4519 29.3582 85.0022C31.2814 84.74 31.6675 87.6174 29.7735 87.887C19.3345 89.9048 13.2154 97.9034 12.6399 106.762C12.5161 108.685 9.6095 108.495 9.73334 106.572Z" fill="#252539"/>
<path d="M10.2368 107.767C8.77983 106.507 10.6811 104.299 12.1453 105.56C27.8074 119.102 51.0746 119.153 66.7804 105.822C65.7751 96.9565 59.1242 89.5553 49.9965 87.9235C48.1025 87.5885 48.6124 84.711 50.5137 85.0534C61.0838 86.9474 68.9439 95.7109 69.7598 106.317C69.7963 106.776 69.6142 107.221 69.2718 107.527C52.4806 122.3 27.2028 122.431 10.2368 107.767Z" fill="#252539"/>
<path d="M28.5796 87.5737L30.4663 85.3519C36.2868 90.2982 43.6953 90.1379 49.3191 85.3883L51.1985 87.6102C44.4165 93.3578 35.4199 93.3869 28.5796 87.5737Z" fill="#252539"/>
<path d="M25.1555 65.3044C21.5787 61.3853 21.3602 56.4026 22.7297 51.2523C26.3138 37.6737 43.4765 39.1379 40.3878 39.1379C58.0385 39.1379 62.2855 58.2601 54.8843 65.5812C53.6459 67.0673 51.4095 65.1879 52.6406 63.7164C54.8406 61.0866 56.4141 58.2893 54.7386 52.0026C51.1327 38.3439 28.9363 39.167 25.5635 51.937C24.4271 56.1913 24.4562 60.2926 27.3919 63.4323C29.1257 65.2898 26.5615 67.2349 25.1555 65.3044Z" fill="#252539"/>
<path d="M94.1927 58.8356C87.214 57.7721 80.7598 54.137 76.2505 48.3603C75.5148 49.1252 74.6916 50.1086 73.9413 51.1285C72.8049 52.6801 70.452 50.9682 71.5884 49.4093C72.8996 47.61 74.4221 45.9345 75.5512 45.0385C76.2287 44.5067 77.183 44.6742 77.6565 45.3517C81.6558 51.1357 87.6365 54.7416 94.1126 55.8635C95.1907 55.594 96.349 56.6284 95.737 57.9979C95.4675 58.5952 94.8337 58.9376 94.1927 58.8356Z" fill="#252539"/>
<path d="M97.194 82.6201C94.506 81.2141 99.8019 78.2565 100.632 66.6375C102.803 39.1743 84.4823 33.5578 76.1267 41.1411C75.8426 41.3961 75.4638 41.5345 75.085 41.5199C70.0222 41.3087 68.0626 47.0708 67.3633 47.9887C63.4077 55.1714 63.6991 64.0296 63.8885 66.5938C64.7335 78.3512 70.0222 81.2214 67.3341 82.6346C66.6202 83.0134 65.7388 82.7366 65.3673 82.0227C55.3436 62.9441 63.7792 38.8027 74.6115 38.6133C85.3346 29.6241 105.885 37.2875 103.554 66.6812C103.153 71.846 101.885 76.8069 99.1609 82.0227C98.7894 82.722 97.9079 82.9989 97.194 82.6201Z" fill="#252539"/>
<path d="M68.0405 61.0575C67.9385 55.6377 70.1676 51.5364 71.508 49.5696C71.9596 48.9067 72.8702 48.7318 73.5331 49.1835C75.9079 50.8007 70.8014 52.9132 70.9544 61.0065C71.1073 69.8647 78.0933 74.9202 82.2601 75.1169C87.5925 74.862 95.2268 67.6574 93.2673 57.5827C92.903 55.696 95.7587 55.1351 96.1302 57.0291C98.4249 68.8302 89.4647 77.7613 82.3184 78.0308C77.9112 78.3513 68.2372 72.407 68.0405 61.0575Z" fill="#252539"/>
<path d="M93.6167 59.9648C93.7405 55.6159 91.373 51.6894 91.3439 51.653C90.3386 50.0067 92.8226 48.4915 93.8279 50.1305C93.9445 50.3199 96.6762 54.8437 96.5305 60.045C96.4723 61.99 93.5584 61.888 93.6167 59.9648Z" fill="#252539"/>
<path d="M82.7259 85.5923C80.4021 86.6485 77.1532 88.6227 73.4526 85.9856C70.0069 83.5234 69.5698 78.089 72.1559 78.344C72.9572 78.4241 73.5472 79.1307 73.4671 79.9321C73.1684 83.0353 76.3373 85.2936 79.1783 84.0115C82.2524 82.6128 82.5511 82.3214 83.3306 82.6711C86.0113 83.8876 88 85.2863 90.3238 83.6181C91.5112 82.7658 92.145 81.389 91.9993 79.9321C91.9192 79.1307 92.5093 78.4168 93.3106 78.344C95.9331 78.1182 95.4158 83.5598 92.0139 85.9856C88.3133 88.63 85.0716 86.6558 82.7259 85.5923Z" fill="#252539"/>
<path d="M81.2617 90.342V84.0116C81.2617 82.0885 84.1756 82.0812 84.1756 84.0116V90.342C84.1756 92.2652 81.2617 92.2724 81.2617 90.342Z" fill="#252539"/>
<path d="M24.9663 64.4959C24.9663 63.5562 25.8113 57.9907 29.5338 55.9874C33.2198 54.0132 36.8549 56.9198 39.1641 57.8595C47.2793 61.1522 51.0527 55.5284 52.4149 58.2602L55.0228 63.476C55.8824 65.1879 53.2818 66.4919 52.4222 64.7727L50.3825 60.6933C44.2488 62.6674 40.9343 61.7131 38.0641 60.5476C35.5873 59.5423 33.0158 57.4079 30.896 58.5443C28.5868 59.7827 27.8802 63.9495 27.8583 64.5032C27.8 66.4117 24.9663 66.3608 24.9663 64.4959Z" fill="#252539"/>
<path d="M43.9792 60.7297L39.3389 56.0894C37.9839 54.7271 40.0382 52.6801 41.3932 54.0351L46.0335 58.6754C47.3957 60.0304 45.3414 62.0847 43.9792 60.7297Z" fill="#252539"/>
<path fill-rule="evenodd" clip-rule="evenodd" d="M79.2105 14.1186C79.7798 14.6872 79.7804 15.6096 79.2118 16.179L68.0437 27.3543C67.7705 27.6276 67.3999 27.7811 67.0135 27.7811C66.6271 27.7811 66.2565 27.6276 65.9833 27.3543L60.396 21.767C59.827 21.198 59.827 20.2755 60.396 19.7066C60.9649 19.1376 61.8874 19.1376 62.4564 19.7066L67.0135 24.2637L77.15 14.1199C77.7186 13.5506 78.6411 13.55 79.2105 14.1186Z" fill="#252539"/>
</svg>
